:FULLY-SPECIFIED
:FORCE-ALL-JOINTS-BE-3DOF
:DEGREES
985
root 1.11371 15.1513 32.4948 5.36999 -4.67578 364.132
lfemur 8.71266 1.76668 5.16867
ltibia 2.93065e-14 0 0
lfoot -30.115 -11.7113 0
ltoes -33.8603 0 0
rfemur -32.971 -15.5162 -6.26651
rtibia 50.8689 0 0
rfoot -22.6521 4.96889 0
rtoes -41.9683 0 0
lowerback -1.5251 -0.423686 0.681968
upperback -0.727652 -0.569562 -5.91075
thorax 0.0390244 -0.301496 -6.52656
lowerneck -6.64748 1.14649 5.86247
upperneck 1.05021 0.950714 3.34357
head 1.4601 0.577024 0.0887511
lclavicle 5.87833e-15 2.31726e-14 0
lhumerus -58.4635 -45.249 114.875
lradius 55.0774 0 0
lwrist 25.2438 0 0
lhand 37.266 24.4424 0
lfingers 7.12502 0 0
lthumb 60.0927 38.125 0
rclavicle 5.87833e-15 2.31726e-14 0
rhumerus 3.75465 -24.9714 -0.149193
rradius 28.0484 0 0
rwrist -11.3257 0 0
rhand -31.3896 -44.5242 0
rfingers 7.12502 0 0
rthumb -4.65934 -794.453 0
986
root 1.11707 15.1533 32.4892 5.33656 -4.66361 364.117
lfemur 8.71704 1.74365 5.17149
ltibia 2.58988e-14 0 0
lfoot -30.1153 -11.6926 0
ltoes -33.8821 0 0
rfemur -32.9078 -15.5397 -6.25913
rtibia 50.7878 0 0
rfoot -22.668 4.95697 0
rtoes -42.065 0 0
lowerback -1.51258 -0.402277 0.67785
upperback -0.722591 -0.540809 -5.89131
thorax 0.0409053 -0.286782 -6.50294
lowerneck -6.69493 1.15377 5.84998
upperneck 1.1061 0.954972 3.3484
head 1.48652 0.581535 0.0928484
lclavicle -1.56214e-16 1.54484e-14 0
lhumerus -58.3971 -45.2122 114.873
lradius 55.0649 0 0
lwrist 25.1521 0 0
lhand 37.2546 24.4213 0
lfingers 7.12502 0 0
lthumb 60.083 38.1141 0
rclavicle -1.56214e-16 1.54484e-14 0
rhumerus 3.75159 -24.9064 -0.158805
rradius 28.0204 0 0
rwrist -11.2622 0 0
rhand -31.4081 -44.5007 0
rfingers 7.12502 0 0
rthumb -4.67721 -794.429 0
987
root 1.12044 15.1553 32.4837 5.30313 -4.65145 364.103
lfemur 8.72142 1.72063 5.1743
ltibia 2.2491e-14 0 0
lfoot -30.1156 -11.6739 0
ltoes -33.9038 0 0
rfemur -32.8446 -15.5633 -6.25174
rtibia 50.7067 0 0
rfoot -22.6838 4.94505 0
rtoes -42.1618 0 0
lowerback -1.50006 -0.380868 0.673733
upperback -0.71753 -0.512057 -5.87187
thorax 0.0427862 -0.272069 -6.47932
lowerneck -6.74238 1.16106 5.83748
upperneck 1.16199 0.959229 3.35323
head 1.51293 0.586047 0.0969457
lclavicle -6.19076e-15 7.7242e-15 0
lhumerus -58.3307 -45.1755 114.871
lradius 55.0523 0 0
lwrist 25.0604 0 0
lhand 37.2433 24.4001 0
lfingers 7.12502 0 0
lthumb 60.0733 38.1033 0
rclavicle -6.19076e-15 7.7242e-15 0
rhumerus 3.74854 -24.8414 -0.168418
rradius 27.9924 0 0
rwrist -11.1986 0 0
rhand -31.4266 -44.4771 0
rfingers 7.12502 0 0
rthumb -4.69508 -794.405 0
988
root 1.1238 15.1573 32.4781 5.2697 -4.63928 364.088
lfemur 8.7258 1.6976 5.17712
ltibia 1.90833e-14 0 0
lfoot -30.1159 -11.6552 0
ltoes -33.9256 0 0
rfemur -32.7814 -15.5868 -6.24436
rtibia 50.6256 0 0
rfoot -22.6997 4.93313 0
rtoes -42.2585 0 0
lowerback -1.48754 -0.359459 0.669615
upperback -0.712469 -0.483304 -5.85243
thorax 0.0446671 -0.257355 -6.4557
lowerneck -6.78983 1.16834 5.82499
upperneck 1.21788 0.963487 3.35806
head 1.53935 0.590558 0.101043
lclavicle -1.22253e-14 0 0
lhumerus -58.2643 -45.1387 114.869
lradius 55.0398 0 0
lwrist 24.9687 0 0
lhand 37.2319 24.379 0
lfingers 7.12502 0 0
lthumb 60.0636 38.0924 0
rclavicle -1.22253e-14 0 0
rhumerus 3.74548 -24.7764 -0.17803
rradius 27.9644 0 0
rwrist -11.1351 0 0
rhand -31.4451 -44.4536 0
rfingers 7.12502 0 0
rthumb -4.71295 -794.381 0
989
root 1.12537 15.1579 32.4733 5.245 -4.5878 364.069
lfemur 8.70921 1.64249 5.19454
ltibia 1.86289e-14 0 0
lfoot -30.1225 -11.6108 0
ltoes -33.9484 0 0
rfemur -32.7185 -15.6172 -6.23387
rtibia 50.5791 0 0
rfoot -22.7222 4.87983 0
rtoes -42.3662 0 0
lowerback -1.47635 -0.358065 0.659155
upperback -0.706197 -0.481223 -5.84486
thorax 0.0452556 -0.256112 -6.4415
lowerneck -6.795 1.16873 5.84041
upperneck 1.22363 0.961696 3.36965
head 1.54215 0.590279 0.102084
lclavicle -1.33683e-14 -2.27183e-16 0
lhumerus -58.2944 -45.2304 114.93
lradius 55.0441 0 0
lwrist 25.0231 0 0
lhand 37.2406 24.3817 0
lfingers 7.12502 0 0
lthumb 60.071 38.0872 0
rclavicle -1.33683e-14 -2.27183e-16 0
rhumerus 3.74249 -24.694 -0.200255
rradius 27.9571 0 0
rwrist -11.1234 0 0
rhand -31.412 -44.3762 0
rfingers 7.12502 0 0
rthumb -4.681 -794.304 0
990
root 1.12695 15.1585 32.4685 5.22029 -4.53633 364.049
lfemur 8.69262 1.58737 5.21195
ltibia 1.81746e-14 0 0
lfoot -30.1291 -11.5665 0
ltoes -33.9712 0 0
rfemur -32.6555 -15.6475 -6.22339
rtibia 50.5326 0 0
rfoot -22.7448 4.82653 0
rtoes -42.4739 0 0
lowerback -1.46515 -0.356671 0.648696
upperback -0.699924 -0.479141 -5.83729
thorax 0.0458442 -0.254868 -6.4273
lowerneck -6.80017 1.16912 5.85582
upperneck 1.22938 0.959906 3.38123
head 1.54496 0.589999 0.103126
lclavicle -1.45113e-14 -4.54366e-16 0
lhumerus -58.3246 -45.3221 114.992
lradius 55.0484 0 0
lwrist 25.0775 0 0
lhand 37.2493 24.3845 0
lfingers 7.12502 0 0
lthumb 60.0785 38.0821 0
rclavicle -1.45113e-14 -4.54366e-16 0
rhumerus 3.73951 -24.6117 -0.222481
rradius 27.9499 0 0
rwrist -11.1116 0 0
rhand -31.3789 -44.2988 0
rfingers 7.12502 0 0
rthumb -4.64904 -794.228 0
991
root 1.12852 15.1591 32.4637 5.19559 -4.48485 364.03
lfemur 8.67603 1.53226 5.22937
ltibia 1.77202e-14 0 0
lfoot -30.1357 -11.5221 0
ltoes -33.994 0 0
rfemur -32.5926 -15.6779 -6.2129
rtibia 50.4861 0 0
rfoot -22.7673 4.77323 0
rtoes -42.5816 0 0
lowerback -1.45396 -0.355277 0.638236
upperback -0.693652 -0.47706 -5.82972
thorax 0.0464327 -0.253625 -6.4131
lowerneck -6.80534 1.16951 5.87124
upperneck 1.23513 0.958115 3.39282
head 1.54776 0.58972 0.104167
lclavicle -1.56543e-14 -6.81549e-16 0
lhumerus -58.3547 -45.4138 115.053
lradius 55.0527 0 0
lwrist 25.1319 0 0
lhand 37.258 24.3872 0
lfingers 7.12502 0 0
lthumb 60.0859 38.0769 0
rclavicle -1.56543e-14 -6.81549e-16 0
rhumerus 3.73652 -24.5293 -0.244706
rradius 27.9426 0 0
rwrist -11.0999 0 0
rhand -31.3458 -44.2214 0
rfingers 7.12502 0 0
rthumb -4.61709 -794.151 0
992
root 1.13009 15.1597 32.4588 5.17089 -4.43337 364.011
lfemur 8.65943 1.47715 5.24679
ltibia 1.72659e-14 0 0
lfoot -30.1424 -11.4777 0
ltoes -34.0169 0 0
rfemur -32.5297 -15.7083 -6.20242
rtibia 50.4397 0 0
rfoot -22.7898 4.71992 0
rtoes -42.6894 0 0
lowerback -1.44277 -0.353883 0.627777
upperback -0.68738 -0.474979 -5.82214
thorax 0.0470212 -0.252382 -6.39891
lowerneck -6.8105 1.16991 5.88665
upperneck 1.24088 0.956324 3.40441
head 1.55057 0.58944 0.105208
lclavicle -1.67973e-14 -9.08731e-16 0
lhumerus -58.3849 -45.5054 115.115
lradius 55.0571 0 0
lwrist 25.1864 0 0
lhand 37.2668 24.3899 0
lfingers 7.12502 0 0
lthumb 60.0934 38.0718 0
rclavicle -1.67973e-14 -9.08731e-16 0
rhumerus 3.73353 -24.447 -0.266931
rradius 27.9354 0 0
rwrist -11.0882 0 0
rhand -31.3128 -44.144 0
rfingers 7.12502 0 0
rthumb -4.58513 -794.074 0
